<?xml version="1.0" encoding="UTF-8"?> <svg xmlns="http://www.w3.org/2000/svg" id="Layer_1" data-name="Layer 1" viewBox="0 0 1694.73 253.76"><defs><style>.cls-1{fill:#00a3d3;}.cls-2{fill:#008eba;}.cls-3{fill:#5e7ca3;}</style></defs><title>EasyFile Logo Concept 1</title><g id="DblBubble"><path class="cls-1" d="M415.64,399.57" transform="translate(-179.11 -269.12)"></path><path class="cls-1" d="M391.08,399.57H289.4a8.42,8.42,0,0,1-8.4-8.4V282.9a8.42,8.42,0,0,1,8.4-8.4H454.6a8.42,8.42,0,0,1,8.4,8.4V391.17a8.27,8.27,0,0,1-6.8,8.22c-.51.1-12.24.19-12.79.21" transform="translate(-179.11 -269.12)"></path><path class="cls-1" d="M443.57,399.59c-1.44,0-2.59,1-2.6,1.71s.1,22.36.1,22.36c0,4.62-.89,9.47-6.19,7.12l-38.25-30.89a1.32,1.32,0,0,0-.85-.32H384.6" transform="translate(-179.11 -269.12)"></path><path class="cls-2" d="M226.48,484" transform="translate(-179.11 -269.12)"></path><path class="cls-2" d="M251,484H352.71a8.42,8.42,0,0,0,8.4-8.4V367.35a8.42,8.42,0,0,0-8.4-8.4H187.51a8.42,8.42,0,0,0-8.4,8.4V475.61a8.27,8.27,0,0,0,6.81,8.22c.51.11,12.24.19,12.78.21" transform="translate(-179.11 -269.12)"></path><path class="cls-2" d="M198.55,484c1.44,0,2.59,1,2.6,1.72s-.1,22.35-.1,22.35c0,4.62.89,9.47,6.18,7.12l38.26-30.88a1.26,1.26,0,0,1,.85-.33h11.18" transform="translate(-179.11 -269.12)"></path></g><path class="cls-2" d="M694,347.16a59,59,0,0,1,21.53,22.74,66.38,66.38,0,0,1,7.8,32.15q0,3.6-.13,6a1.92,1.92,0,0,1-1.92,1.81H621.47a1.9,1.9,0,0,0-1.91,2.05q1.55,18.06,12.5,31,11.57,13.73,31.48,13.72,16.15,0,26.78-6.05c6.85-3.9,8.16-5,13.49-10.65a2,2,0,0,1,1.39-.6l14.87-.05a1.93,1.93,0,0,1,1.67,2.89c-5.14,8.81-14.49,18.45-23.21,23.21q-14.53,7.94-34.45,7.94-18.3,0-32.56-8.61a59.92,59.92,0,0,1-22.33-24q-8.09-15.33-8.08-34.71t7.94-34.71a59.29,59.29,0,0,1,22.07-23.95q14.13-8.61,32.15-8.61A57.9,57.9,0,0,1,694,347.16Zm8.81,47.63a1.92,1.92,0,0,0,1.88-2.25q-3-18-12.84-27.22-10.5-9.81-28.53-9.82-17.49,0-28.65,11.17a50.39,50.39,0,0,0-13.68,25.77,1.93,1.93,0,0,0,1.87,2.35Z" transform="translate(-179.11 -269.12)"></path><path class="cls-2" d="M872.63,345v122.1a1.92,1.92,0,0,1-1.91,1.92H856.25a1.92,1.92,0,0,1-1.92-1.92V456a1.91,1.91,0,0,0-3.37-1.24,55.44,55.44,0,0,1-15.73,12.57,51.59,51.59,0,0,1-24.76,6.06,61.34,61.34,0,0,1-32.29-8.61,60,60,0,0,1-22.34-24q-8.07-15.33-8.07-35,0-19.36,7.94-34.58a59.6,59.6,0,0,1,22.06-23.81q14.13-8.61,32.16-8.61a52.87,52.87,0,0,1,25.16,6.05A54.05,54.05,0,0,1,851,357.6a1.91,1.91,0,0,0,3.38-1.22V345a1.92,1.92,0,0,1,1.92-1.92h14.47A1.92,1.92,0,0,1,872.63,345ZM832.94,450.22a43.38,43.38,0,0,0,15.74-18,63.11,63.11,0,0,0,0-52.2,43.45,43.45,0,0,0-15.74-18,41.73,41.73,0,0,0-23-6.46,40.56,40.56,0,0,0-22.6,6.46,44,44,0,0,0-15.61,17.89,57.83,57.83,0,0,0-5.65,26,59.27,59.27,0,0,0,5.65,26.37,43.81,43.81,0,0,0,15.61,18,40.56,40.56,0,0,0,22.6,6.46A41.73,41.73,0,0,0,832.94,450.22Z" transform="translate(-179.11 -269.12)"></path><path class="cls-2" d="M917.7,465.56c-8.39-4.72-17.25-15.84-21.17-24.95a1.93,1.93,0,0,1,1.75-2.7l14.36-.06a1.92,1.92,0,0,1,1.6.86c8.25,12.24,18.84,18,37.77,18q14,0,23.15-5.11t9.15-15.88q0-11-7.4-16.41t-26-7q-25.83-2.14-37-11.57t-11.17-25q0-17.49,12.65-27.18t34.71-9.68c23.89,0,44.49,13.18,51.62,32.43a1.93,1.93,0,0,1-1.81,2.58l-15.34,0a1.91,1.91,0,0,1-1.74-1.1c-2.91-6.35-6.08-8.91-11.61-12.14q-8.75-5.1-22.46-5.11-14,0-21.4,5.11T920,375.14q0,8.88,7.94,14.4t27.31,7.13q24,2.16,35.66,11.71t11.71,25.16q0,12.65-7.27,21.66A44.28,44.28,0,0,1,976,468.79a73.22,73.22,0,0,1-26.1,4.58Q931.56,473.37,917.7,465.56Z" transform="translate(-179.11 -269.12)"></path><path class="cls-2" d="M1118.56,343.12h13.12a1.92,1.92,0,0,1,1.8,2.6l-66.63,175.92a1.92,1.92,0,0,1-1.8,1.24h-14.17a1.92,1.92,0,0,1-1.79-2.61l18.63-48.08a1.91,1.91,0,0,0,0-1.41l-50.32-125a1.91,1.91,0,0,1,1.77-2.63h15a1.91,1.91,0,0,1,1.78,1.21L1075.33,443a1.92,1.92,0,0,0,3.57,0l37.87-98.61A1.91,1.91,0,0,1,1118.56,343.12Z" transform="translate(-179.11 -269.12)"></path><path class="cls-3" d="M1194.06,292.26q-6,6.47-6,16.69V341.2a1.92,1.92,0,0,0,1.92,1.92h25.22a1.92,1.92,0,0,1,1.92,1.92v12.85a1.92,1.92,0,0,1-1.92,1.92h-25.22a1.91,1.91,0,0,0-1.92,1.91V467.14a1.92,1.92,0,0,1-1.92,1.92h-14.46a1.92,1.92,0,0,1-1.92-1.92V361.72a1.91,1.91,0,0,0-1.92-1.91h-12.31a1.91,1.91,0,0,1-1.91-1.92V345a1.91,1.91,0,0,1,1.91-1.92h12.31a1.92,1.92,0,0,0,1.92-1.92V309q0-17.49,11.17-28.66t28.66-11.17h5.61a1.92,1.92,0,0,1,1.92,1.92v12.85a1.91,1.91,0,0,1-1.92,1.91h-5.61A20.31,20.31,0,0,0,1194.06,292.26Z" transform="translate(-179.11 -269.12)"></path><path class="cls-3" d="M1246.53,314.33a14.38,14.38,0,0,1-4.11-9.08,14.68,14.68,0,0,1,4.75-12.11,14.82,14.82,0,0,1,19.95.6,14.56,14.56,0,1,1-20.59,20.59Z" transform="translate(-179.11 -269.12)"></path><rect class="cls-3" x="1068.63" y="74" width="18.3" height="125.94" rx="1.92" ry="1.92"></rect><path class="cls-3" d="M1301.06,467.14V275.61a1.92,1.92,0,0,1,1.92-1.92h14.46a1.92,1.92,0,0,1,1.92,1.92V467.14a1.92,1.92,0,0,1-1.92,1.92H1303A1.92,1.92,0,0,1,1301.06,467.14Z" transform="translate(-179.11 -269.12)"></path><path class="cls-3" d="M1440.41,347.16a59,59,0,0,1,21.53,22.74,66.38,66.38,0,0,1,7.8,32.15q0,3.6-.13,6a1.92,1.92,0,0,1-1.92,1.81h-99.76a1.92,1.92,0,0,0-1.92,2.05q1.56,18.06,12.51,31,11.57,13.73,31.48,13.72,16.15,0,26.78-6.05c6.85-3.9,8.16-5,13.49-10.65a2,2,0,0,1,1.39-.6l14.87-.05a1.92,1.92,0,0,1,1.66,2.89c-5.13,8.81-14.49,18.45-23.2,23.21q-14.54,7.94-34.45,7.94-18.3,0-32.56-8.61a60,60,0,0,1-22.34-24q-8.07-15.33-8.07-34.71t7.94-34.71a59.29,59.29,0,0,1,22.07-23.95q14.12-8.61,32.15-8.61A57.9,57.9,0,0,1,1440.41,347.16Zm8.81,47.63a1.92,1.92,0,0,0,1.88-2.25q-3-18-12.84-27.22-10.5-9.81-28.53-9.82-17.49,0-28.66,11.17a50.45,50.45,0,0,0-13.67,25.77,1.93,1.93,0,0,0,1.87,2.35Z" transform="translate(-179.11 -269.12)"></path><path class="cls-3" d="M1502.1,466.92a14.46,14.46,0,0,1-4.15-10.46,14.14,14.14,0,0,1,4.15-10.18,13.51,13.51,0,0,1,10.05-4.29,14.65,14.65,0,0,1,14.74,14.74,13.91,13.91,0,0,1-4.29,10.19,14.24,14.24,0,0,1-10.45,4.29A13.51,13.51,0,0,1,1502.1,466.92Z" transform="translate(-179.11 -269.12)"></path><path class="cls-2" d="M1719.21,351.54q11.52,12.21,11.53,33.64v81.49a2.39,2.39,0,0,1-2.39,2.39H1714.9a2.39,2.39,0,0,1-2.39-2.39V393.22q0-19.83-7.5-28.55T1685.45,356q-14.75,0-22.92,11.4T1653,398.21v68.46a2.39,2.39,0,0,1-2.39,2.39h-13.45a2.39,2.39,0,0,1-2.39-2.39V393.22q0-19.83-7.5-28.55T1607.72,356q-16.34,0-24.52,13.67T1575,406.35v60.32a2.39,2.39,0,0,1-2.39,2.39H1559.2a2.39,2.39,0,0,1-2.4-2.39V346a2.39,2.39,0,0,1,2.4-2.39h13.44A2.39,2.39,0,0,1,1575,346v8.9a2.39,2.39,0,0,0,4.31,1.42,43.37,43.37,0,0,1,11.37-10.84,42,42,0,0,1,45.69,1.21,36.68,36.68,0,0,1,12.37,15.87,2.38,2.38,0,0,0,4.29.18,48.19,48.19,0,0,1,13.62-15.92,38.72,38.72,0,0,1,23.59-7.5Q1707.69,339.35,1719.21,351.54Z" transform="translate(-179.11 -269.12)"></path><path class="cls-2" d="M1844.51,346.42A59,59,0,0,1,1866,369.16a66.36,66.36,0,0,1,7.81,32.15q0,3.6-.14,6a1.92,1.92,0,0,1-1.91,1.81H1772a1.9,1.9,0,0,0-1.91,2.05q1.55,18.06,12.5,31.05,11.57,13.72,31.49,13.72,16.14,0,26.77-6.05c6.85-3.91,8.16-5.05,13.49-10.65a1.93,1.93,0,0,1,1.39-.6l14.87-.05a1.93,1.93,0,0,1,1.67,2.89c-5.14,8.8-14.49,18.45-23.21,23.21q-14.53,7.94-34.45,7.93-18.3,0-32.56-8.61a59.89,59.89,0,0,1-22.33-23.95q-8.09-15.33-8.08-34.71t7.94-34.71a59.29,59.29,0,0,1,22.07-23.95q14.13-8.61,32.16-8.62A57.9,57.9,0,0,1,1844.51,346.42Zm8.81,47.63a1.93,1.93,0,0,0,1.89-2.26q-3-18-12.85-27.21-10.5-9.82-28.52-9.82-17.5,0-28.66,11.17a50.39,50.39,0,0,0-13.68,25.77,1.94,1.94,0,0,0,1.88,2.35Z" transform="translate(-179.11 -269.12)"></path><path class="cls-3" d="M1502.06,466.82a14.32,14.32,0,0,1-4.12-9.07,14.69,14.69,0,0,1,4.76-12.12,14.82,14.82,0,0,1,19.94.61,14.55,14.55,0,1,1-20.58,20.58Z" transform="translate(-179.11 -269.12)"></path></svg> 