<?xml version="1.0" encoding="UTF-8"?>
<svg id="Layer_1" xmlns="http://www.w3.org/2000/svg" viewBox="0 0 1492 487">
  <defs>
    <style>
      .cls-1 {
        fill: #001f54;
        font-family: Quicksand-SemiBold, Quicksand;
        font-variation-settings: 'wght' 600;
        font-weight: 600;
      }

      .cls-1, .cls-2 {
        font-size: 161.65px;
      }

      .cls-3 {
        fill: none;
        stroke-linecap: round;
      }

      .cls-3, .cls-4 {
        stroke: #001f54;
        stroke-miterlimit: 10;
        stroke-width: 12px;
      }

      .cls-2 {
        fill: #5c9ead;
        font-family: Quicksand-Regular, Quicksand;
        font-variation-settings: 'wght' 400;
        letter-spacing: .55em;
      }

      .cls-4 {
        fill: #fff;
      }
    </style>
  </defs>
  <path class="cls-4" d="M490.79,247H31.21c-2.34,0-4.21-1.93-4.17-4.27C29.32,115.47,133.2,13,261,13s231.68,102.47,233.96,229.73c.04,2.34-1.82,4.27-4.17,4.27Z"/>
  <line class="cls-3" x1="494.24" y1="266" x2="27.76" y2="266"/>
  <line class="cls-3" x1="491.93" y1="285" x2="30.07" y2="285"/>
  <line class="cls-3" x1="488" y1="304" x2="34" y2="304"/>
  <line class="cls-3" x1="482.38" y1="323" x2="39.62" y2="323"/>
  <line class="cls-3" x1="474.91" y1="342" x2="47.09" y2="342"/>
  <line class="cls-3" x1="465.4" y1="361" x2="56.6" y2="361"/>
  <line class="cls-3" x1="453.56" y1="380" x2="68.44" y2="380"/>
  <line class="cls-3" x1="438.91" y1="399" x2="83.09" y2="399"/>
  <line class="cls-3" x1="420.73" y1="418" x2="101.27" y2="418"/>
  <line class="cls-3" x1="397.61" y1="437" x2="124.39" y2="437"/>
  <line class="cls-3" x1="366.34" y1="456" x2="155.66" y2="456"/>
  <line class="cls-3" x1="313.89" y1="475" x2="208.11" y2="475"/>
  <path class="cls-3" d="M206.04,83.6l-123.04,163.4h250l-123.04-163.4c-.98-1.3-2.93-1.3-3.91,0Z"/>
  <path class="cls-3" d="M433,247l-98.13-116.26c-.98-1.16-2.77-1.16-3.74,0l-45.28,53.64"/>
  <circle class="cls-3" cx="297.5" cy="69.5" r="27.5"/>
  <text class="cls-1" transform="translate(538.48 202.4) scale(.75 1)"><tspan x="0" y="0">Salt Lake Valley</tspan></text>
  <text class="cls-2" transform="translate(532.48 380.4) scale(.75 1)"><tspan x="0" y="0">Chamber</tspan></text>
</svg>