<?xml version="1.0" encoding="UTF-8"?>
<svg id="light_theme" data-name="light theme" xmlns="http://www.w3.org/2000/svg" viewBox="0 0 1358 390">
  <defs>
    <style>
      .cls-1 {
        fill: none;
        stroke-linecap: round;
      }

      .cls-1, .cls-2 {
        stroke: #fff;
        stroke-miterlimit: 10;
        stroke-width: 10px;
      }

      .cls-3 {
        fill: #5c9ead;
        font-family: Quicksand-Regular, Quicksand;
        font-variation-settings: 'wght' 400;
        letter-spacing: .55em;
      }

      .cls-3, .cls-4 {
        font-size: 161.65px;
      }

      .cls-2, .cls-4 {
        fill: #fff;
      }

      .cls-4 {
        font-family: Quicksand-SemiBold, Quicksand;
        font-variation-settings: 'wght' 600;
        font-weight: 600;
      }
    </style>
  </defs>
  <path class="cls-2" d="M360.03,191.22H19.82c-1.73,0-3.12-1.43-3.09-3.16C18.42,93.85,95.32,18,189.92,18s171.51,75.85,173.19,170.06c.03,1.73-1.35,3.16-3.09,3.16Z"/>
  <line class="cls-1" x1="360.87" y1="219.35" x2="18.97" y2="219.35"/>
  <line class="cls-1" x1="353.8" y1="247.48" x2="26.04" y2="247.48"/>
  <line class="cls-1" x1="341.23" y1="275.61" x2="38.61" y2="275.61"/>
  <line class="cls-1" x1="321.62" y1="303.74" x2="58.22" y2="303.74"/>
  <line class="cls-1" x1="291.05" y1="331.87" x2="88.8" y2="331.87"/>
  <line class="cls-1" x1="229.08" y1="360" x2="150.77" y2="360"/>
  <path class="cls-1" d="M148.73,70.94l-90.58,120.28h185.06l-90.58-120.28c-.98-1.3-2.93-1.3-3.91,0Z"/>
  <path class="cls-1" d="M317.25,191.22l-72.64-86.06c-.72-.86-2.05-.86-2.77,0l-33.52,39.71"/>
  <circle class="cls-1" cx="216.94" cy="59.82" r="20.36"/>
  <text class="cls-4" transform="translate(397.48 162.4) scale(.75 1)"><tspan x="0" y="0">Salt Lake Valley</tspan></text>
  <text class="cls-3" transform="translate(391.48 340.4) scale(.75 1)"><tspan x="0" y="0">Chamber</tspan></text>
</svg>