<?xml version="1.0" encoding="UTF-8"?>
<svg id="Layer_1" data-name="Layer 1" xmlns="http://www.w3.org/2000/svg" viewBox="0 0 400 400">
  <defs>
    <style>
      .cls-1 {
        fill: #fff;
      }

      .cls-1, .cls-2 {
        stroke: #001f54;
        stroke-miterlimit: 10;
        stroke-width: 10px;
      }

      .cls-2 {
        fill: none;
        stroke-linecap: round;
      }
    </style>
  </defs>
  <path class="cls-1" d="M370.03,202.72H29.82c-1.73,0-3.12-1.43-3.09-3.16C28.42,105.35,105.32,29.5,199.92,29.5s171.51,75.85,173.19,170.06c.03,1.73-1.35,3.16-3.09,3.16Z"/>
  <line class="cls-2" x1="370.87" y1="230.85" x2="28.97" y2="230.85"/>
  <line class="cls-2" x1="363.8" y1="258.98" x2="36.04" y2="258.98"/>
  <line class="cls-2" x1="351.23" y1="287.11" x2="48.61" y2="287.11"/>
  <line class="cls-2" x1="331.62" y1="315.24" x2="68.22" y2="315.24"/>
  <line class="cls-2" x1="301.05" y1="343.37" x2="98.8" y2="343.37"/>
  <line class="cls-2" x1="239.08" y1="371.5" x2="160.77" y2="371.5"/>
  <path class="cls-2" d="M158.73,82.44l-90.58,120.28h185.06l-90.58-120.28c-.98-1.3-2.93-1.3-3.91,0Z"/>
  <path class="cls-2" d="M327.25,202.72l-72.64-86.06c-.72-.86-2.05-.86-2.77,0l-33.52,39.71"/>
  <circle class="cls-2" cx="226.94" cy="71.32" r="20.36"/>
</svg>